# xmcd CD database file
#
# Track frame offsets:
#	150
#	15804
#	42973
#	68815
#	95809
#	120399
#	160057
#	193095
#	214112
#	239540
#	261436
#	293946
#
# Disc length: 4242 seconds
#
# Revision: 4
# Processed by: cddbd v1.5.1PL0 Copyright (c) Steve Scherf et al.
# Submitted via: CDex 1.51
#
DISCID=aa10900c
DTITLE=Various Artist - SLAN 〜Human was singing〜
DYEAR=1900
DGENRE=New Age
TTITLE0=OP SE
TTITLE1=Dear Sky 〜by CURSUN PERFICIO
TTITLE2=Tomorrow has the Place 〜by CURSUN PERFICIO
TTITLE3=I've wake up 〜by CURSUN PERFICIO
TTITLE4=NEGATIVE 〜by CURSUN PERFICIO
TTITLE5=過失〜Ayamachi〜 〜by CURSUN PERFICIO
TTITLE6=悲雨〜Hisame〜 〜by CURSUN PERFICIO
TTITLE7=NEXT 〜by Morgue
TTITLE8=No future history 〜by Morgue
TTITLE9=Why... 〜by ANTI TESSE
TTITLE10=Close My Sweet 〜by ANTI TESSE
TTITLE11=The Deep 〜from HELLO by Emiko Shiratori
EXTD=
EXTT0=
EXTT1=
EXTT2=
EXTT3=
EXTT4=
EXTT5=
EXTT6=
EXTT7=
EXTT8=
EXTT9=
EXTT10=
EXTT11=
PLAYORDER=
